Coordinates
version=1
nRows=38
nColumns=12
inDegrees=yes

Units are S.I. units (second, meters, Newtons, ...)
Angles are in degrees

endheader
time	SC_y	SC_z	SC_x	AC_y	AC_z	AC_x	GH_y	GH_z	GH_yy	EL_x	PS_y
       0.0              -12.24          30.88          58.48          57.71         -13.14         -14.32          48.87          78.68          107.5          32.05          28.14
   0.01765              -12.24          30.88          58.47          57.72         -13.14         -14.32          48.87          78.67          107.5          32.07          28.15
    0.0353              -12.24          30.88          58.46          57.72         -13.14         -14.31          48.88          78.67          107.4          32.08          28.16
   0.05295              -12.25          30.88          58.45          57.72         -13.14         -14.31          48.88          78.66          107.4          32.09          28.17
    0.0706              -12.25          30.88          58.44          57.72         -13.14          -14.3          48.89          78.65          107.3          32.11          28.18
   0.08825              -12.25          30.88          58.43          57.72         -13.14          -14.3          48.89          78.64          107.3          32.13          28.19
    0.1059              -12.26          30.89          58.42          57.73         -13.14         -14.29           48.9          78.62          107.2          32.14          28.21
    0.1235              -12.26          30.89          58.41          57.73         -13.14         -14.29          48.91          78.61          107.2          32.16          28.22
    0.1412              -12.26          30.89           58.4          57.73         -13.14         -14.28          48.92           78.6          107.1          32.18          28.24
    0.1588              -12.27          30.89          58.38          57.73         -13.14         -14.28          48.93          78.59          107.0           32.2          28.25
    0.1765              -12.27          30.89          58.37          57.74         -13.14         -14.27          48.93          78.57          107.0          32.22          28.27
    0.1941              -12.28          30.89          58.35          57.74         -13.13         -14.26          48.94          78.55          106.9          32.25          28.29
    0.2118              -12.28          30.89          58.34          57.74         -13.13         -14.26          48.96          78.54          106.8          32.27          28.31
    0.2294              -12.29          30.89          58.32          57.75         -13.13         -14.25          48.97          78.52          106.7           32.3          28.33
    0.2471              -12.29          30.89           58.3          57.75         -13.13         -14.24          48.98           78.5          106.6          32.33          28.35
    0.2647               -12.3          30.89          58.28          57.76         -13.13         -14.23          48.99          78.48          106.5          32.37          28.38
    0.2824              -12.31          30.89          58.25          57.76         -13.13         -14.22          49.01          78.45          106.4           32.4           28.4
       0.3              -12.31           30.9          58.23          57.77         -13.12         -14.21          49.02          78.43          106.3          32.44          28.43
    0.3177              -12.32           30.9           58.2          57.77         -13.12         -14.19          49.04           78.4          106.1          32.48          28.47
    0.3353              -12.33           30.9          58.17          57.78         -13.12         -14.18          49.06          78.37          106.0          32.53           28.5
     0.353              -12.34           30.9          58.14          57.79         -13.12         -14.16          49.08          78.33          105.8          32.58          28.54
    0.3706              -12.35           30.9           58.1          57.79         -13.12         -14.15           49.1           78.3          105.6          32.64          28.58
    0.3883              -12.36          30.91          58.06           57.8         -13.11         -14.13          49.13          78.25          105.4           32.7          28.63
    0.4059              -12.37          30.91          58.02          57.81         -13.11         -14.11          49.16          78.21          105.2          32.77          28.68
    0.4236              -12.39          30.91          57.97          57.82         -13.11         -14.08          49.19          78.16          105.0          32.85          28.74
    0.4412              -12.41          30.91          57.91          57.83          -13.1         -14.06          49.22           78.1          104.7          32.93          28.81
    0.4589              -12.42          30.92          57.85          57.85          -13.1         -14.03          49.26          78.04          104.4          33.03          28.88
    0.4765              -12.44          30.92          57.78          57.86         -13.09          -14.0          49.31          77.97          104.0          33.14          28.96
    0.4942              -12.47          30.93           57.7          57.88         -13.09         -13.96          49.36          77.88          103.7          33.26          29.05
    0.5118              -12.49          30.93          57.61           57.9         -13.08         -13.92          49.41          77.79          103.2           33.4          29.16
    0.5295              -12.52          30.94          57.51          57.92         -13.07         -13.87          49.48          77.69          102.7          33.56          29.28
    0.5471              -12.56          30.94          57.39          57.95         -13.06         -13.82          49.55          77.57          102.1          33.74          29.42
    0.5648               -12.6          30.95          57.25          57.97         -13.05         -13.75          49.64          77.43          101.5          33.95          29.58
    0.5824              -12.64          30.96           57.1          58.01         -13.04         -13.68          49.74          77.27          100.7          34.19          29.76
    0.6001               -12.7          30.97          56.91          58.05         -13.03         -13.59          49.85          77.08          99.77          34.48          29.98
    0.6177              -12.76          30.98          56.69          58.09         -13.01         -13.49          49.99          76.85           98.7          34.82          30.24
    0.6354              -12.84           31.0          56.44          58.15         -12.99         -13.37          50.15          76.59          97.43          35.22          30.54
     0.653              -12.93          31.02          56.13          58.21         -12.97         -13.23          50.35          76.27           95.9           35.7           30.9
